<svg width="122" height="122" viewBox="0 0 122 122" fill="none" xmlns="http://www.w3.org/2000/svg">
<g filter="url(#filter0_d)">
<circle cx="61" cy="60" r="55" fill="#2B2B2B"/>
</g>
<path d="M91 50.0901C87.3432 51.8745 83.7676 53.9308 80.0054 55.3761C74.9946 57.3072 72.4892 61.5238 70.9054 66.7518C69.1865 72.429 68.3838 78.3261 67.8514 84.2752C67.6108 86.9427 67.3838 89.6163 66.9919 92.2593C66.4216 96.1398 64.0189 98.08 60.2757 97.8509C57.3162 97.6675 55.2432 95.0428 54.8892 91.3854C54.1459 83.7466 53.7324 76.0284 51.6054 68.6737C50.7134 65.6625 49.4932 62.7886 47.973 60.1183C47.1189 58.5905 45.5757 57.3469 44.0973 56.5464C40.1324 54.4075 36.0378 52.5742 31.9973 50.6095C31.597 50.4351 31.2504 50.1324 31 49.7387C35.5378 50.4628 40.1216 50.9609 44.6027 51.9875C48.0108 52.7789 50.3784 55.5411 52.1838 58.8472C54.9189 63.8552 56.2378 69.4284 57.0297 75.1484C57.7297 80.135 58.1378 85.1766 58.7432 90.1815C58.8865 91.3732 58.8108 92.8429 60.2405 93.2707C61.9243 93.7748 62.9973 92.8429 63.2378 90.6765C63.7946 85.6624 64.2568 80.63 64.9081 75.6311C65.5595 70.6323 66.7135 65.7099 68.7081 61.1235C71.1649 55.4739 74.8622 51.7889 80.7054 51.2695C84.1351 50.9639 87.5378 50.3009 90.9514 49.7967L91 50.0901Z" fill="#A7CE38"/>
<path d="M86.0405 31.0818C86.7594 35.0295 86.5811 38.7206 85.3243 42.2741C84.1702 45.5374 81.6189 47.1049 78.5081 46.6374C78.0792 46.549 77.691 46.2939 77.4108 45.9163C75.6405 43.4261 75.5189 40.4164 77.1811 37.752C79.3189 34.3267 82.5189 32.6309 86.0405 31.0818Z" fill="#A7CE38"/>
<path d="M61.2513 23C63.6513 26.7552 65.773 30.2019 65.727 34.6904C65.7013 36.069 65.304 37.4059 64.5883 38.5225C63.8725 39.6391 62.8724 40.4821 61.7216 40.9389C61.3476 41.0537 60.9511 41.0312 60.5892 40.8748C57.6702 39.6526 56.1892 36.4748 56.7459 32.9793C57.3486 29.2119 59.1459 26.19 61.2513 23Z" fill="#A7CE38"/>
<path d="M35.9378 30.7918C39.0486 32.2126 41.7324 33.722 43.8459 36.2367C46.1837 39.0172 46.5297 42.2897 44.7729 45.3666C44.3784 46.0074 43.7763 46.4465 43.0973 46.5888C40.6324 46.8944 38.5189 45.9441 37.2378 43.4661C35.2189 39.555 35.6324 35.2987 35.9378 30.7918Z" fill="#A7CE38"/>
<path d="M43.1622 71.1209C41.4973 70.7054 39.9189 70.4335 38.3973 69.8987C36.8757 69.364 36.1352 68.0043 35.8649 66.2841C35.5135 64.0688 36.6757 62.2661 38.6622 62.2294C42.7162 62.153 46.1568 63.9527 49.073 67.0388C50.1352 68.1632 50 69.1226 48.6081 69.6543C46.8622 70.3265 45.0054 70.6443 43.1622 71.1209Z" fill="#A7CE38"/>
<path d="M79.0216 71.0144C77.3298 70.5958 75.6 70.3116 73.9568 69.725C72.3973 69.1719 72.2216 67.9406 73.4838 66.6695C76.2298 63.8676 79.4298 62.2206 83.1919 62.1565C84.4135 62.1381 85.5757 62.3642 86.1433 63.7698C86.4596 64.4758 86.5859 65.2712 86.5067 66.0575C86.4274 66.8439 86.146 67.5867 85.6973 68.1942C84.3919 70.058 82.4838 70.4491 80.5622 70.7364C80.0699 70.7715 79.5761 70.7715 79.0838 70.7364L79.0216 71.0144Z" fill="#A7CE38"/>
<defs>
<filter id="filter0_d" x="0" y="0" width="122" height="122" filterUnits="userSpaceOnUse" color-interpolation-filters="sRGB">
<feFlood flood-opacity="0" result="BackgroundImageFix"/>
<feColorMatrix in="SourceAlpha" type="matrix" values="0 0 0 0 0 0 0 0 0 0 0 0 0 0 0 0 0 0 127 0"/>
<feOffset dy="1"/>
<feGaussianBlur stdDeviation="3"/>
<feColorMatrix type="matrix" values="0 0 0 0 0.2 0 0 0 0 0.2 0 0 0 0 0.2 0 0 0 0.2 0"/>
<feBlend mode="normal" in2="BackgroundImageFix" result="effect1_dropShadow"/>
<feBlend mode="normal" in="SourceGraphic" in2="effect1_dropShadow" result="shape"/>
</filter>
</defs>
</svg>
